<?xml version="1.0" encoding="iso-8859-1"?>
<!-- Generator: Adobe Illustrator 17.1.0, SVG Export Plug-In . SVG Version: 6.00 Build 0)  -->
<!DOCTYPE svg PUBLIC "-//W3C//DTD SVG 1.1//EN" "http://www.w3.org/Graphics/SVG/1.1/DTD/svg11.dtd">
<svg version="1.1" id="Capa_1" xmlns="http://www.w3.org/2000/svg" xmlns:xlink="http://www.w3.org/1999/xlink" x="0px" y="0px"
	 viewBox="0 0 442 442" style="enable-background:new 0 0 442 442;" xml:space="preserve">
<path d="M377.271,64.729C335.529,22.988,280.031,0,221,0S106.471,22.988,64.729,64.729S0,161.969,0,221
	s22.988,114.529,64.729,156.271S161.969,442,221,442s114.529-22.988,156.271-64.729S442,280.031,442,221
	S419.012,106.471,377.271,64.729z M20,221c0-110.832,90.168-201,201-201c85.753,0,159.122,53.985,187.941,129.748
	c-13.849-2.677-27.982-4.033-42.208-4.033c-59.031,0-114.529,22.988-156.271,64.729c-41.741,41.742-64.729,97.24-64.729,156.271
	c0,14.235,1.358,28.377,4.039,42.235C73.996,380.137,20,306.761,20,221z M165.732,366.715c0-110.832,90.168-201,201-201
	c12.679,0,25.271,1.179,37.616,3.514L169.247,404.336C166.911,391.988,165.732,379.395,165.732,366.715z M221,422
	c-12.846,0-25.409-1.226-37.592-3.541l235.051-235.056C420.774,195.587,422,208.152,422,221C422,331.832,331.832,422,221,422z"/>
<g>
</g>
<g>
</g>
<g>
</g>
<g>
</g>
<g>
</g>
<g>
</g>
<g>
</g>
<g>
</g>
<g>
</g>
<g>
</g>
<g>
</g>
<g>
</g>
<g>
</g>
<g>
</g>
<g>
</g>
</svg>
