<?xml version="1.0" encoding="UTF-8" standalone="no"?>
<!-- Generator: Adobe Illustrator 18.1.1, SVG Export Plug-In . SVG Version: 6.00 Build 0)  -->

<svg
   version="1.1"
   id="Capa_1"
   x="0px"
   y="0px"
   viewBox="0 0 32.055 32.055"
   style="enable-background:new 0 0 32.055 32.055;"
   xml:space="preserve"
   sodipodi:docname="three_dot.svg"
   inkscape:version="1.1 (ce6663b3b7, 2021-05-25)"
   xmlns:inkscape="http://www.inkscape.org/namespaces/inkscape"
   xmlns:sodipodi="http://sodipodi.sourceforge.net/DTD/sodipodi-0.dtd"
   xmlns="http://www.w3.org/2000/svg"
   xmlns:svg="http://www.w3.org/2000/svg"><defs
   id="defs222" /><sodipodi:namedview
   id="namedview220"
   pagecolor="#ffffff"
   bordercolor="#666666"
   borderopacity="1.0"
   inkscape:pageshadow="2"
   inkscape:pageopacity="0.0"
   inkscape:pagecheckerboard="0"
   showgrid="false"
   inkscape:zoom="23.241304"
   inkscape:cx="7.4006174"
   inkscape:cy="16.0275"
   inkscape:window-width="1920"
   inkscape:window-height="954"
   inkscape:window-x="0"
   inkscape:window-y="27"
   inkscape:window-maximized="1"
   inkscape:current-layer="Capa_1" />
<g
   id="g187"
   style="fill:#65676b;fill-opacity:1">
	<path
   d="M3.968,12.061C1.775,12.061,0,13.835,0,16.027c0,2.192,1.773,3.967,3.968,3.967c2.189,0,3.966-1.772,3.966-3.967   C7.934,13.835,6.157,12.061,3.968,12.061z M16.233,12.061c-2.188,0-3.968,1.773-3.968,3.965c0,2.192,1.778,3.967,3.968,3.967   s3.97-1.772,3.97-3.967C20.201,13.835,18.423,12.061,16.233,12.061z M28.09,12.061c-2.192,0-3.969,1.774-3.969,3.967   c0,2.19,1.774,3.965,3.969,3.965c2.188,0,3.965-1.772,3.965-3.965S30.278,12.061,28.09,12.061z"
   id="path185"
   style="fill:#65676b;fill-opacity:1" />
</g>
<g
   id="g189">
</g>
<g
   id="g191">
</g>
<g
   id="g193">
</g>
<g
   id="g195">
</g>
<g
   id="g197">
</g>
<g
   id="g199">
</g>
<g
   id="g201">
</g>
<g
   id="g203">
</g>
<g
   id="g205">
</g>
<g
   id="g207">
</g>
<g
   id="g209">
</g>
<g
   id="g211">
</g>
<g
   id="g213">
</g>
<g
   id="g215">
</g>
<g
   id="g217">
</g>
</svg>
